<?xml version="1.0"?>
<svg width="32" height="47" xmlns="http://www.w3.org/2000/svg" xmlns:svg="http://www.w3.org/2000/svg">
 <g class="layer">
  <title>Layer 1</title>
  <path clip-rule="evenodd" d="m23.3958,23.2683c-0.0434,0.2687 -0.1492,0.5245 -0.3095,0.7482c-0.1603,0.2236 -0.3709,0.4094 -0.616,0.5432c-0.4937,0.308 -0.9256,0.462 -1.3626,0.616c-0.9307,0.3104 -1.9103,0.6209 -2.9464,0.981c-1.0926,0.3602 -2.0722,0.7203 -2.9463,0.9811c-1.0901,0.3601 -2.1262,0.6706 -3.1109,1.0307c-0.7408,0.3062 -1.4367,0.7054 -2.0696,1.1872c-0.58866,0.5152 -1.10238,1.105 -1.52716,1.7534c-0.43707,0.7203 -0.71216,1.6492 -0.71216,2.732c0,2.1683 0.54504,3.8174 1.63771,4.8481c1.09011,1.0854 3.11091,1.5995 6.10601,1.5995c3.0543,0 5.1265,-0.5663 6.2218,-1.7013c1.0875,-1.135 1.6325,-2.732 1.6325,-4.7935l0,-10.5256l0.0026,0zm-7.8543,-22.8496c5.3476,0 9.2735,0.98104 11.7802,2.9928c2.5093,1.96208 3.7639,4.48546 3.7639,7.4758l0,25.4822c0,1.0307 -0.216,2.1657 -0.5965,3.4026c-0.3856,1.2418 -1.1466,2.3744 -2.3473,3.4026c-1.1441,1.0357 -2.7252,1.9124 -4.7434,2.583c-2.0182,0.6706 -4.6355,1.0307 -7.8543,1.0307c-3.2137,0 -5.83612,-0.3601 -7.85176,-1.0307c-2.01564,-0.6706 -3.59936,-1.5473 -4.74344,-2.583c-1.0643,-0.9266 -1.87056,-2.0966 -2.34472,-3.4026c-0.38565,-1.2344 -0.60418,-2.3694 -0.60418,-3.4001l0,-4.0732c0,-2.1682 0.59904,-4.18 1.79968,-5.9359c1.20064,-1.8032 2.88977,-3.04 5.07252,-3.8149c1.09009,-0.3601 2.34472,-0.7203 3.7613,-1.1847c1.4192,-0.4669 2.7253,-0.9314 4.0364,-1.3412c1.3112,-0.4147 2.4553,-0.8295 3.4349,-1.1921c0.5911,-0.2285 1.1915,-0.434 1.7996,-0.616l0.9822,-0.4644c0.3856,-0.2062 0.7635,-0.5166 1.1466,-0.9289c0.3805,-0.4098 0.707,-0.8742 0.9821,-1.3908c0.2907,-0.5594 0.4404,-1.1773 0.4371,-1.8032l0,-1.6516c0.004,-0.6053 -0.1275,-1.2043 -0.3857,-1.7559c-0.2159,-0.62094 -0.653,-1.18721 -1.252,-1.70133c-0.5991,-0.5166 -1.4192,-0.92888 -2.3987,-1.24182c-0.9822,-0.30549 -2.2882,-0.46196 -3.7639,-0.46196c-3.0544,0 -5.0726,0.57124 -6.16265,1.75346c-0.92555,1.0332 -1.4706,2.32225 -1.57858,3.76525c0,0.3104 -0.27252,0.5166 -0.6016,0.5166l-6.6511,0.1043c-0.15799,0.0006 -0.30986,-0.059 -0.42254,-0.166c-0.11267,-0.107 -0.17704,-0.2527 -0.17907,-0.4053l0,-1.4902c0,-1.44793 0.27509,-2.7891 0.87413,-4.07811c0.60161,-1.29149 1.52973,-2.37188 2.78179,-3.30325c1.25463,-0.9264 2.89234,-1.69881 4.85399,-2.21541c1.91023,-0.62091 4.25493,-0.87673 6.98013,-0.87673l-0.0051,0z" fill="url(#svg_3)" fill-rule="evenodd" id="svg_1"/>
 </g>
 <defs>
  <linearGradient id="svg_3" x1="0" x2="1" y1="0" y2="1">
   <stop offset="0" stop-color="#ffb834" stop-opacity="0.996094"/>
   <stop offset="1" stop-color="#cf3b3b" stop-opacity="0.996094"/>
  </linearGradient>
 </defs>
</svg>